<svg xmlns="http://www.w3.org/2000/svg" viewBox="0 0 900 600" role="img" aria-label="Lovable-Eject cover">
  <defs>
    <pattern id="le-grain" x="0" y="0" width="100" height="100" patternUnits="userSpaceOnUse">
      <filter id="le-noise">
        <feTurbulence type="fractalNoise" baseFrequency="0.9" numOctaves="2" stitchTiles="stitch"/>
        <feColorMatrix values="0 0 0 0 0.1 0 0 0 0 0.08 0 0 0 0 0.05 0 0 0 0.04 0"/>
      </filter>
      <rect width="100" height="100" filter="url(#le-noise)"/>
    </pattern>
  </defs>

  <!-- Paper bg -->
  <rect width="900" height="600" fill="#ece4d2"/>
  <rect width="900" height="600" fill="url(#le-grain)"/>

  <!-- Inner frame rule -->
  <rect x="36" y="36" width="828" height="528" fill="none" stroke="#c9bfa8" stroke-width="1"/>

  <!-- Top meta strip -->
  <g font-family="JetBrains Mono, monospace" font-size="11" letter-spacing="2.4" fill="#7a7161">
    <text x="72" y="82">N° 04 · LOVABLE-EJECT</text>
    <text x="828" y="82" text-anchor="end">CLI · OPEN SOURCE</text>
  </g>

  <!-- Big title number -->
  <text x="72" y="185" font-family="Fraunces, serif" font-size="108" font-style="italic" font-weight="300" fill="#1a1814" letter-spacing="-3">04</text>

  <!-- Motion trails / eject "departure" lines -->
  <g stroke="#c9bfa8" stroke-width="1" stroke-dasharray="4 6" fill="none" opacity="0.8">
    <line x1="220" y1="320" x2="280" y2="320"/>
    <line x1="220" y1="340" x2="320" y2="340"/>
    <line x1="220" y1="360" x2="300" y2="360"/>
    <line x1="580" y1="320" x2="680" y2="320"/>
    <line x1="580" y1="340" x2="720" y2="340"/>
    <line x1="580" y1="360" x2="660" y2="360"/>
  </g>

  <!-- Big eject glyph (centered) -->
  <g transform="translate(450, 330)">
    <!-- Outer ring -->
    <circle cx="0" cy="0" r="110" fill="none" stroke="#1a1814" stroke-width="1.5"/>

    <!-- Inner ring -->
    <circle cx="0" cy="0" r="92" fill="none" stroke="#c9bfa8" stroke-width="0.75"/>

    <!-- Eject triangle -->
    <path d="M 0 -50 L 52 22 L -52 22 Z" fill="#1a1814"/>

    <!-- Eject bar -->
    <rect x="-52" y="34" width="104" height="14" fill="#1a1814"/>

    <!-- Accent dot (power) -->
    <circle cx="90" cy="-80" r="5" fill="#a6421c"/>
    <circle cx="90" cy="-80" r="10" fill="none" stroke="#a6421c" stroke-width="1" opacity="0.4"/>
  </g>

  <!-- CLI command strip below -->
  <g transform="translate(180, 474)">
    <rect x="0" y="-26" width="540" height="44" rx="3" fill="#1a1814"/>
    <text x="18" y="2" font-family="JetBrains Mono, monospace" font-size="16" fill="#c47452">$</text>
    <text x="40" y="2" font-family="JetBrains Mono, monospace" font-size="16" fill="#ece4d2">npx lovable-eject</text>
    <!-- Cursor -->
    <rect x="230" y="-8" width="10" height="3" fill="#c47452">
      <animate attributeName="opacity" values="1;0;1" dur="1.2s" repeatCount="indefinite"/>
    </rect>
    <!-- Right label -->
    <text x="520" y="2" text-anchor="end" font-family="JetBrains Mono, monospace" font-size="10" letter-spacing="1.5" fill="#7a7161">FREE · PORTABLE</text>
  </g>

  <!-- Bottom tagline -->
  <g>
    <line x1="72" y1="552" x2="180" y2="552" stroke="#1a1814" stroke-width="1.2"/>
    <text x="72" y="536" font-family="Fraunces, serif" font-size="24" font-style="italic" font-weight="300" fill="#1a1814" letter-spacing="-0.5">
      Out of lock-in.
    </text>
  </g>

  <!-- Corner ornament -->
  <g stroke="#1a1814" stroke-width="1" fill="none">
    <line x1="828" y1="528" x2="828" y2="552"/>
    <line x1="828" y1="552" x2="804" y2="552"/>
  </g>
</svg>
