<svg xmlns="http://www.w3.org/2000/svg" viewBox="0 0 900 600" role="img" aria-label="Nebula cover">
  <defs>
    <pattern id="ne-grain" x="0" y="0" width="100" height="100" patternUnits="userSpaceOnUse">
      <filter id="ne-noise">
        <feTurbulence type="fractalNoise" baseFrequency="0.9" numOctaves="2" stitchTiles="stitch"/>
        <feColorMatrix values="0 0 0 0 0.1 0 0 0 0 0.08 0 0 0 0 0.05 0 0 0 0.04 0"/>
      </filter>
      <rect width="100" height="100" filter="url(#ne-noise)"/>
    </pattern>
  </defs>

  <rect width="900" height="600" fill="#ece4d2"/>
  <rect width="900" height="600" fill="url(#ne-grain)"/>
  <rect x="36" y="36" width="828" height="528" fill="none" stroke="#c9bfa8" stroke-width="1"/>

  <g font-family="JetBrains Mono, monospace" font-size="11" letter-spacing="2.4" fill="#7a7161">
    <text x="72" y="82">N° 06 · NEBULA</text>
    <text x="828" y="82" text-anchor="end">STUDIO · IN DEVELOPMENT</text>
  </g>

  <text x="72" y="185" font-family="Fraunces, serif" font-size="108" font-style="italic" font-weight="300" fill="#1a1814" letter-spacing="-3">06</text>

  <!-- Dashboard UI abstraction -->
  <g transform="translate(180, 240)">
    <!-- Outer window -->
    <rect x="0" y="0" width="600" height="260" rx="6" fill="#1a1814"/>

    <!-- Dark sidebar -->
    <rect x="0" y="0" width="140" height="260" rx="6" fill="#0f0d0a"/>
    <rect x="0" y="0" width="140" height="260" fill="none" stroke="#3d3830" stroke-width="1"/>

    <!-- Reticle logo + wordmark -->
    <g transform="translate(24, 32)">
      <circle cx="0" cy="0" r="10" fill="none" stroke="#3ecfa0" stroke-width="1.5"/>
      <circle cx="0" cy="0" r="2" fill="#3ecfa0"/>
      <line x1="-14" y1="0" x2="-12" y2="0" stroke="#3ecfa0" stroke-width="1.2"/>
      <line x1="12" y1="0" x2="14" y2="0" stroke="#3ecfa0" stroke-width="1.2"/>
      <line x1="0" y1="-14" x2="0" y2="-12" stroke="#3ecfa0" stroke-width="1.2"/>
      <line x1="0" y1="12" x2="0" y2="14" stroke="#3ecfa0" stroke-width="1.2"/>
      <text x="24" y="4" font-family="JetBrains Mono, monospace" font-size="12" font-weight="500" letter-spacing="1.5" fill="#f1ebdd">NEBULA.</text>
    </g>

    <!-- Sidebar entries -->
    <g font-family="JetBrains Mono, monospace" font-size="9" fill="#7a7161">
      <!-- active -->
      <rect x="8" y="76" width="124" height="20" rx="3" fill="#2a2620"/>
      <text x="20" y="89" fill="#f1ebdd">Dashboard</text>
      <text x="20" y="113">Invoices</text>
      <text x="20" y="133">Expenses</text>
      <text x="20" y="153">Banking</text>
      <text x="20" y="173">Contacts</text>
      <text x="20" y="193">Documents</text>
      <text x="20" y="217" fill="#3d3830" letter-spacing="1.5">REPORTING</text>
      <text x="20" y="235">Reports</text>
    </g>

    <!-- Main content area -->
    <g transform="translate(140, 0)">
      <!-- Top bar -->
      <text x="18" y="26" font-family="Fraunces, serif" font-size="16" font-weight="500" fill="#f1ebdd">Dashboard</text>
      <text x="18" y="42" font-family="JetBrains Mono, monospace" font-size="8" fill="#7a7161">Welcome to Curaris Health Ltd</text>

      <!-- System healthy banner -->
      <rect x="18" y="56" width="424" height="22" rx="3" fill="#0f0d0a" stroke="#3ecfa0" stroke-width="0.8"/>
      <circle cx="30" cy="67" r="3" fill="#3ecfa0"/>
      <text x="42" y="70" font-family="JetBrains Mono, monospace" font-size="8" fill="#f1ebdd">System: Healthy</text>

      <!-- Metric cards row -->
      <g transform="translate(18, 90)">
        <!-- card 1 -->
        <rect x="0" y="0" width="136" height="60" rx="3" fill="#0f0d0a" stroke="#3d3830" stroke-width="0.6"/>
        <text x="8" y="14" font-family="JetBrains Mono, monospace" font-size="7" letter-spacing="1.2" fill="#7a7161">REVENUE</text>
        <text x="8" y="38" font-family="JetBrains Mono, monospace" font-size="16" fill="#f1ebdd">£0.00</text>

        <!-- card 2 -->
        <rect x="146" y="0" width="136" height="60" rx="3" fill="#0f0d0a" stroke="#3d3830" stroke-width="0.6"/>
        <text x="154" y="14" font-family="JetBrains Mono, monospace" font-size="7" letter-spacing="1.2" fill="#7a7161">EXPENSES</text>
        <text x="154" y="38" font-family="JetBrains Mono, monospace" font-size="16" fill="#f1ebdd">£0.00</text>

        <!-- card 3 -->
        <rect x="292" y="0" width="136" height="60" rx="3" fill="#0f0d0a" stroke="#3d3830" stroke-width="0.6"/>
        <text x="300" y="14" font-family="JetBrains Mono, monospace" font-size="7" letter-spacing="1.2" fill="#7a7161">NET PROFIT</text>
        <text x="300" y="38" font-family="JetBrains Mono, monospace" font-size="16" fill="#3ecfa0">£0.00</text>
      </g>

      <!-- Chart strip -->
      <g transform="translate(18, 168)">
        <rect x="0" y="0" width="428" height="68" rx="3" fill="#0f0d0a" stroke="#3d3830" stroke-width="0.6"/>
        <text x="10" y="16" font-family="JetBrains Mono, monospace" font-size="7" letter-spacing="1.2" fill="#7a7161">CASH FLOW</text>
        <!-- fake line chart -->
        <polyline points="18,52 58,40 98,46 138,30 178,38 218,24 258,30 298,18 338,24 378,16 418,22"
                  fill="none" stroke="#3ecfa0" stroke-width="1.2"/>
      </g>
    </g>
  </g>

  <!-- Floating stardust / nebula particles around the UI -->
  <g opacity="0.6">
    <circle cx="130" cy="260" r="1.5" fill="#1a1814"/>
    <circle cx="108" cy="320" r="1" fill="#7a7161"/>
    <circle cx="850" cy="280" r="1.2" fill="#1a1814"/>
    <circle cx="830" cy="370" r="1" fill="#7a7161"/>
    <circle cx="110" cy="420" r="1" fill="#7a7161"/>
    <circle cx="860" cy="450" r="1.5" fill="#1a1814"/>
  </g>

  <g>
    <line x1="72" y1="552" x2="180" y2="552" stroke="#1a1814" stroke-width="1.2"/>
    <text x="72" y="536" font-family="Fraunces, serif" font-size="26" font-style="italic" font-weight="300" fill="#1a1814" letter-spacing="-0.5">
      The business, at a glance.
    </text>
  </g>

  <g stroke="#1a1814" stroke-width="1" fill="none">
    <line x1="828" y1="528" x2="828" y2="552"/>
    <line x1="828" y1="552" x2="804" y2="552"/>
  </g>
</svg>
