<svg xmlns="http://www.w3.org/2000/svg" viewBox="0 0 900 600" role="img" aria-label="NotchWise cover">
  <defs>
    <pattern id="nw-grain" x="0" y="0" width="100" height="100" patternUnits="userSpaceOnUse">
      <filter id="nw-noise">
        <feTurbulence type="fractalNoise" baseFrequency="0.9" numOctaves="2" stitchTiles="stitch"/>
        <feColorMatrix values="0 0 0 0 0.1 0 0 0 0 0.08 0 0 0 0 0.05 0 0 0 0.04 0"/>
      </filter>
      <rect width="100" height="100" filter="url(#nw-noise)"/>
    </pattern>
  </defs>

  <!-- Paper bg -->
  <rect width="900" height="600" fill="#ece4d2"/>
  <rect width="900" height="600" fill="url(#nw-grain)"/>

  <!-- Inner frame rule -->
  <rect x="36" y="36" width="828" height="528" fill="none" stroke="#c9bfa8" stroke-width="1"/>

  <!-- Top meta strip -->
  <g font-family="JetBrains Mono, monospace" font-size="11" letter-spacing="2.4" fill="#7a7161">
    <text x="72" y="82">N° 01 · NOTCHWISE</text>
    <text x="828" y="82" text-anchor="end">MACOS · MMXXVI</text>
  </g>

  <!-- Big title number -->
  <text x="72" y="185" font-family="Fraunces, serif" font-size="108" font-style="italic" font-weight="300" fill="#1a1814" letter-spacing="-3">01</text>

  <!-- Center illustration: MacBook top with notch + card -->
  <g transform="translate(450, 340)">
    <!-- Subtle shadow under device -->
    <ellipse cx="0" cy="148" rx="220" ry="10" fill="#1a1814" opacity="0.08"/>

    <!-- MacBook screen outline -->
    <rect x="-260" y="-80" width="520" height="220" rx="16" fill="#1a1814"/>
    <rect x="-252" y="-72" width="504" height="204" rx="10" fill="#2a2620"/>

    <!-- Notch shape (inverted, cut from top) -->
    <path d="M -40 -80 L -40 -72 Q -40 -56 -24 -56 L 24 -56 Q 40 -56 40 -72 L 40 -80 Z" fill="#1a1814"/>

    <!-- Flashcard emerging below notch -->
    <g transform="translate(0, -50)">
      <rect x="-110" y="6" width="220" height="112" rx="6" fill="#f1ebdd" stroke="#1a1814" stroke-width="1.5"/>
      <text x="-95" y="32" font-family="JetBrains Mono, monospace" font-size="9" letter-spacing="1.5" fill="#a6421c">PHARMACOLOGY</text>
      <line x1="-95" y1="42" x2="-15" y2="42" stroke="#c9bfa8" stroke-width="1"/>
      <text x="-95" y="68" font-family="Fraunces, serif" font-size="15" font-style="italic" fill="#1a1814">What is metformin's</text>
      <text x="-95" y="88" font-family="Fraunces, serif" font-size="15" font-style="italic" fill="#1a1814">mechanism of action?</text>
      <text x="-95" y="108" font-family="JetBrains Mono, monospace" font-size="8" letter-spacing="1.2" fill="#7a7161">SPACE TO FLIP</text>
    </g>

    <!-- Small red active indicator dot (inside notch) -->
    <circle cx="0" cy="-68" r="2.5" fill="#a6421c"/>

    <!-- Base/hinge -->
    <rect x="-300" y="140" width="600" height="10" rx="3" fill="#1a1814"/>
    <rect x="-40" y="150" width="80" height="4" fill="#1a1814"/>
  </g>

  <!-- Bottom tagline -->
  <g>
    <line x1="72" y1="492" x2="180" y2="492" stroke="#1a1814" stroke-width="1.2"/>
    <text x="72" y="528" font-family="Fraunces, serif" font-size="26" font-style="italic" font-weight="300" fill="#1a1814" letter-spacing="-0.5">
      Spaced repetition, ambient.
    </text>
    <text x="72" y="552" font-family="JetBrains Mono, monospace" font-size="10" letter-spacing="2" fill="#7a7161">
      SWIFT · SWIFTUI · FSRS · SM-2
    </text>
  </g>

  <!-- Corner ornament -->
  <g stroke="#1a1814" stroke-width="1" fill="none">
    <line x1="828" y1="528" x2="828" y2="552"/>
    <line x1="828" y1="552" x2="804" y2="552"/>
  </g>
</svg>
