<svg xmlns="http://www.w3.org/2000/svg" viewBox="0 0 900 600" role="img" aria-label="Orbit cover">
  <defs>
    <pattern id="or-grain" x="0" y="0" width="100" height="100" patternUnits="userSpaceOnUse">
      <filter id="or-noise">
        <feTurbulence type="fractalNoise" baseFrequency="0.9" numOctaves="2" stitchTiles="stitch"/>
        <feColorMatrix values="0 0 0 0 0.1 0 0 0 0 0.08 0 0 0 0 0.05 0 0 0 0.04 0"/>
      </filter>
      <rect width="100" height="100" filter="url(#or-noise)"/>
    </pattern>
  </defs>

  <rect width="900" height="600" fill="#ece4d2"/>
  <rect width="900" height="600" fill="url(#or-grain)"/>
  <rect x="36" y="36" width="828" height="528" fill="none" stroke="#c9bfa8" stroke-width="1"/>

  <g font-family="JetBrains Mono, monospace" font-size="11" letter-spacing="2.4" fill="#7a7161">
    <text x="72" y="82">N° 05 · ORBIT</text>
    <text x="828" y="82" text-anchor="end">STUDIO · IN DEVELOPMENT</text>
  </g>

  <text x="72" y="185" font-family="Fraunces, serif" font-size="108" font-style="italic" font-weight="300" fill="#1a1814" letter-spacing="-3">05</text>

  <!-- Orbital diagram (center) -->
  <g transform="translate(470, 340)">
    <!-- Outer orbit -->
    <ellipse cx="0" cy="0" rx="200" ry="80" fill="none" stroke="#1a1814" stroke-width="1" stroke-dasharray="2 4"/>
    <!-- Middle orbit -->
    <ellipse cx="0" cy="0" rx="150" ry="60" fill="none" stroke="#1a1814" stroke-width="1"/>
    <!-- Inner orbit -->
    <ellipse cx="0" cy="0" rx="95" ry="38" fill="none" stroke="#c9bfa8" stroke-width="1"/>

    <!-- Tilted secondary orbits for a "planetary diagram" feel -->
    <ellipse cx="0" cy="0" rx="180" ry="72" fill="none" stroke="#c9bfa8" stroke-width="0.6" transform="rotate(-20)"/>
    <ellipse cx="0" cy="0" rx="120" ry="48" fill="none" stroke="#c9bfa8" stroke-width="0.6" transform="rotate(22)"/>

    <!-- Central "planet" / balance sphere -->
    <circle cx="0" cy="0" r="32" fill="#1a1814"/>
    <circle cx="0" cy="0" r="26" fill="none" stroke="#c47452" stroke-width="0.8"/>
    <text x="0" y="7" text-anchor="middle" font-family="Fraunces, serif" font-size="24" font-style="italic" fill="#f1ebdd">£</text>

    <!-- Orbiting glyphs with tick marks -->
    <!-- Inner orbit -->
    <circle cx="95" cy="0" r="5" fill="#a6421c"/>
    <circle cx="-67" cy="27" r="4" fill="#1a1814"/>

    <!-- Middle orbit -->
    <g transform="translate(150, 0)">
      <rect x="-8" y="-10" width="16" height="20" fill="#1a1814"/>
      <line x1="-5" y1="-5" x2="5" y2="-5" stroke="#f1ebdd" stroke-width="0.8"/>
      <line x1="-5" y1="0" x2="5" y2="0" stroke="#f1ebdd" stroke-width="0.8"/>
      <line x1="-5" y1="5" x2="2" y2="5" stroke="#f1ebdd" stroke-width="0.8"/>
    </g>
    <g transform="translate(-106, 42)">
      <text x="0" y="4" text-anchor="middle" font-family="Fraunces, serif" font-size="22" font-style="italic" fill="#1a1814">%</text>
    </g>

    <!-- Outer orbit -->
    <g transform="translate(-200, 0)">
      <rect x="-12" y="-8" width="24" height="16" rx="2" fill="#1a1814"/>
      <circle cx="0" cy="-1" r="2.5" fill="#c47452"/>
    </g>
    <g transform="translate(141, 57)">
      <text x="0" y="4" text-anchor="middle" font-family="JetBrains Mono, monospace" font-size="14" fill="#a6421c" font-weight="500">OCR</text>
    </g>
    <g transform="translate(-141, -57)">
      <text x="0" y="4" text-anchor="middle" font-family="Fraunces, serif" font-size="22" font-style="italic" fill="#1a1814">$</text>
    </g>

    <!-- Small scatter stars -->
    <circle cx="-240" cy="-70" r="1" fill="#1a1814"/>
    <circle cx="220" cy="-85" r="1.2" fill="#1a1814"/>
    <circle cx="260" cy="60" r="1" fill="#7a7161"/>
  </g>

  <!-- Bottom tagline -->
  <g>
    <line x1="72" y1="552" x2="180" y2="552" stroke="#1a1814" stroke-width="1.2"/>
    <text x="72" y="536" font-family="Fraunces, serif" font-size="26" font-style="italic" font-weight="300" fill="#1a1814" letter-spacing="-0.5">
      The books balance themselves.
    </text>
  </g>

  <g stroke="#1a1814" stroke-width="1" fill="none">
    <line x1="828" y1="528" x2="828" y2="552"/>
    <line x1="828" y1="552" x2="804" y2="552"/>
  </g>
</svg>
