<svg xmlns="http://www.w3.org/2000/svg" viewBox="0 0 900 600" role="img" aria-label="ParkMoto cover">
  <defs>
    <pattern id="pm-grain" x="0" y="0" width="100" height="100" patternUnits="userSpaceOnUse">
      <filter id="pm-noise">
        <feTurbulence type="fractalNoise" baseFrequency="0.9" numOctaves="2" stitchTiles="stitch"/>
        <feColorMatrix values="0 0 0 0 0.1 0 0 0 0 0.08 0 0 0 0 0.05 0 0 0 0.04 0"/>
      </filter>
      <rect width="100" height="100" filter="url(#pm-noise)"/>
    </pattern>

    <!-- clip so map lines stay inside frame -->
    <clipPath id="pm-clip">
      <rect x="36" y="36" width="828" height="528"/>
    </clipPath>
  </defs>

  <!-- Paper bg -->
  <rect width="900" height="600" fill="#ece4d2"/>
  <rect width="900" height="600" fill="url(#pm-grain)"/>

  <!-- Inner frame rule -->
  <rect x="36" y="36" width="828" height="528" fill="none" stroke="#c9bfa8" stroke-width="1"/>

  <!-- Abstract London street grid (background) -->
  <g clip-path="url(#pm-clip)" stroke="#c9bfa8" stroke-width="1" opacity="0.7" fill="none">
    <!-- Curving road lines suggesting Thames + streets -->
    <path d="M 36 420 Q 250 380, 400 400 T 864 380" stroke-width="3.5" stroke="#c47452" opacity="0.35"/>
    <path d="M 36 440 Q 250 400, 400 420 T 864 400" stroke-width="3.5" stroke="#c47452" opacity="0.35"/>

    <!-- Radial street grid -->
    <line x1="120" y1="36" x2="120" y2="564"/>
    <line x1="240" y1="36" x2="240" y2="564"/>
    <line x1="360" y1="36" x2="360" y2="564"/>
    <line x1="520" y1="36" x2="520" y2="564"/>
    <line x1="660" y1="36" x2="660" y2="564"/>
    <line x1="780" y1="36" x2="780" y2="564"/>

    <line x1="36" y1="140" x2="864" y2="140"/>
    <line x1="36" y1="220" x2="864" y2="220"/>
    <line x1="36" y1="300" x2="864" y2="300"/>

    <!-- Diagonal -->
    <line x1="36" y1="100" x2="420" y2="340" stroke-width="1.5"/>
    <line x1="500" y1="90" x2="864" y2="280" stroke-width="1.5"/>

    <!-- Smaller lanes -->
    <g opacity="0.6" stroke-dasharray="2 4">
      <line x1="180" y1="80" x2="180" y2="400"/>
      <line x1="300" y1="80" x2="300" y2="400"/>
      <line x1="440" y1="80" x2="440" y2="400"/>
      <line x1="600" y1="80" x2="600" y2="400"/>
      <line x1="720" y1="80" x2="720" y2="400"/>
    </g>
  </g>

  <!-- Top meta strip -->
  <g font-family="JetBrains Mono, monospace" font-size="11" letter-spacing="2.4" fill="#7a7161">
    <text x="72" y="82">N° 03 · PARKMOTO</text>
    <text x="828" y="82" text-anchor="end">LONDON · MMXXVI</text>
  </g>

  <!-- Big title number -->
  <text x="72" y="185" font-family="Fraunces, serif" font-size="108" font-style="italic" font-weight="300" fill="#1a1814" letter-spacing="-3">03</text>

  <!-- Scattered small pins (bays) -->
  <g>
    <!-- free (accent red circle) -->
    <circle cx="200" cy="250" r="6" fill="#a6421c"/>
    <circle cx="320" cy="155" r="6" fill="#a6421c"/>
    <circle cx="610" cy="180" r="6" fill="#a6421c"/>
    <circle cx="720" cy="260" r="6" fill="#a6421c"/>
    <circle cx="800" cy="180" r="6" fill="#a6421c"/>
    <!-- paid (muted) -->
    <circle cx="160" cy="350" r="5" fill="#c47452" opacity="0.7"/>
    <circle cx="280" cy="340" r="5" fill="#c47452" opacity="0.7"/>
    <circle cx="680" cy="330" r="5" fill="#c47452" opacity="0.7"/>
    <circle cx="760" cy="360" r="5" fill="#c47452" opacity="0.7"/>
  </g>

  <!-- Primary big pin marker (center) -->
  <g transform="translate(470, 300)">
    <!-- Drop shadow -->
    <ellipse cx="0" cy="86" rx="22" ry="4" fill="#1a1814" opacity="0.18"/>

    <!-- Pin body -->
    <path d="M 0 -60 C -33 -60 -55 -38 -55 -8 C -55 22 0 80 0 80 C 0 80 55 22 55 -8 C 55 -38 33 -60 0 -60 Z"
          fill="#1a1814"/>

    <!-- Pin inner circle -->
    <circle cx="0" cy="-10" r="30" fill="#f1ebdd"/>

    <!-- Letter P -->
    <text x="0" y="2" text-anchor="middle" font-family="Fraunces, serif" font-size="42" font-style="italic" font-weight="500" fill="#1a1814">P</text>

    <!-- Radiating circles (signal) -->
    <circle cx="0" cy="-10" r="48" fill="none" stroke="#a6421c" stroke-width="1" opacity="0.4"/>
    <circle cx="0" cy="-10" r="64" fill="none" stroke="#a6421c" stroke-width="1" opacity="0.22"/>
    <circle cx="0" cy="-10" r="80" fill="none" stroke="#a6421c" stroke-width="1" opacity="0.1"/>
  </g>

  <!-- Compass rose (small, decorative) -->
  <g transform="translate(810, 500)" stroke="#1a1814" fill="#1a1814">
    <circle cx="0" cy="0" r="16" fill="none" stroke-width="1"/>
    <path d="M 0 -16 L 3 0 L 0 16 L -3 0 Z" stroke-width="0.5"/>
    <text x="0" y="-22" text-anchor="middle" font-family="JetBrains Mono, monospace" font-size="8" letter-spacing="1">N</text>
  </g>

  <!-- Bottom tagline -->
  <g>
    <line x1="72" y1="552" x2="180" y2="552" stroke="#1a1814" stroke-width="1.2"/>
    <text x="72" y="536" font-family="Fraunces, serif" font-size="26" font-style="italic" font-weight="300" fill="#1a1814" letter-spacing="-0.5">
      Every bay in London.
    </text>
  </g>

  <!-- Corner ornament -->
  <g stroke="#1a1814" stroke-width="1" fill="none">
    <line x1="712" y1="528" x2="712" y2="552"/>
    <line x1="712" y1="552" x2="688" y2="552"/>
  </g>
</svg>
